<svg data-v-423bf9ae="" xmlns="http://www.w3.org/2000/svg" viewBox="0 0 562.3457918449297 60" class="font"><!----><!----><!----><g data-v-423bf9ae="" id="ca2531e7-6dad-4e1d-aa22-4631ac1e744f" fill="#000000" transform="matrix(4.569687698175228,0,0,4.569687698175228,-3.838544151198505,-11.058645055060708)"><path d="M2.89 12.67L0.84 12.67L0.84 2.42L5.31 2.42L5.31 2.42Q8.90 2.42 8.90 5.37L8.90 5.37L8.90 5.37Q8.90 8.44 5.32 8.44L5.32 8.44L2.89 8.44L2.89 12.67ZM2.89 4.34L2.89 6.52L5.76 6.52L5.76 6.52Q7 6.50 7.03 5.39L7.03 5.39L7.03 5.39Q7 4.38 5.78 4.34L5.78 4.34L2.89 4.34ZM12.17 12.67L10.25 12.67L10.25 5.83L12.17 5.83L12.17 12.67ZM10.19 4.20L10.19 4.20L10.19 4.20Q10.19 4.61 10.46 4.88L10.46 4.88L10.46 4.88Q10.73 5.15 11.21 5.15L11.21 5.15L11.21 5.15Q11.69 5.15 11.96 4.88L11.96 4.88L11.96 4.88Q12.24 4.61 12.24 4.20L12.24 4.20L12.24 4.20Q12.24 3.79 11.96 3.51L11.96 3.51L11.96 3.51Q11.69 3.23 11.20 3.23L11.20 3.23L11.20 3.23Q10.73 3.23 10.46 3.51L10.46 3.51L10.46 3.51Q10.19 3.79 10.19 4.20ZM15.72 15.55L13.81 15.54L13.81 6.04L15.72 5.83L15.72 6.38L15.72 6.38Q16.49 5.83 17.23 5.83L17.23 5.83L17.23 5.83Q18.80 5.83 19.72 6.86L19.72 6.86L19.72 6.86Q20.64 7.88 20.64 9.25L20.64 9.25L20.64 9.25Q20.64 10.62 19.72 11.64L19.72 11.64L19.72 11.64Q18.80 12.67 17.23 12.67L17.23 12.67L17.23 12.67Q16.20 12.60 15.72 12.11L15.72 12.11L15.72 15.55ZM15.72 8.63L15.72 8.63L15.72 9.74L15.72 9.74Q15.86 10.89 17.16 11.09L17.16 11.09L17.16 11.09Q18.80 10.96 19.00 9.39L19.00 9.39L19.00 9.39Q18.94 7.47 17.16 7.40L17.16 7.40L17.16 7.40Q15.86 7.61 15.72 8.63ZM21.65 9.26L21.65 9.26L21.65 9.26Q21.65 7.75 22.61 6.79L22.61 6.79L22.61 6.79Q23.56 5.84 25.07 5.84L25.07 5.84L25.07 5.84Q26.57 5.84 27.46 6.79L27.46 6.79L27.46 6.79Q28.35 7.75 28.35 9.26L28.35 9.26L28.35 9.94L23.63 9.94L23.63 9.94Q23.70 10.49 24.11 10.79L24.11 10.79L24.11 10.79Q24.52 11.10 25.07 11.10L25.07 11.10L25.07 11.10Q26.02 11.10 26.78 10.55L26.78 10.55L27.87 11.65L27.87 11.65Q27.12 12.67 25.07 12.67L25.07 12.67L25.07 12.67Q23.56 12.67 22.61 11.72L22.61 11.72L22.61 11.72Q21.65 10.76 21.65 9.26ZM26.43 8.57L26.43 8.57Q26.43 8.03 26.02 7.72L26.02 7.72L26.02 7.72Q25.61 7.41 25.07 7.41L25.07 7.41L25.07 7.41Q24.52 7.41 24.11 7.72L24.11 7.72L24.11 7.72Q23.70 8.03 23.70 8.57L23.70 8.57L26.43 8.57ZM31.77 12.67L29.85 12.67L29.85 2.42L31.77 2.42L31.77 12.67ZM35.68 12.67L33.77 12.67L33.77 5.83L35.68 5.83L35.68 12.67ZM33.70 4.20L33.70 4.20L33.70 4.20Q33.70 4.61 33.97 4.88L33.97 4.88L33.97 4.88Q34.25 5.15 34.73 5.15L34.73 5.15L34.73 5.15Q35.21 5.15 35.48 4.88L35.48 4.88L35.48 4.88Q35.75 4.61 35.75 4.20L35.75 4.20L35.75 4.20Q35.75 3.79 35.48 3.51L35.48 3.51L35.48 3.51Q35.21 3.23 34.71 3.23L34.71 3.23L34.71 3.23Q34.25 3.23 33.97 3.51L33.97 3.51L33.97 3.51Q33.70 3.79 33.70 4.20ZM39.27 8.33L39.27 8.33L39.27 12.67L37.35 12.67L37.35 6.04L39.27 5.83L39.27 6.45L39.27 6.45Q39.96 5.84 40.91 5.84L40.91 5.84L40.91 5.84Q42.21 5.84 42.89 6.62L42.89 6.62L42.89 6.62Q43.57 7.41 43.57 8.44L43.57 8.44L43.57 12.67L41.66 12.67L41.66 8.91L41.66 8.91Q41.66 8.23 41.32 7.85L41.32 7.85L41.32 7.85Q40.97 7.48 40.28 7.46L40.28 7.46L40.28 7.46Q39.69 7.50 39.27 8.33ZM44.82 9.26L44.82 9.26L44.82 9.26Q44.82 7.75 45.77 6.79L45.77 6.79L45.77 6.79Q46.73 5.84 48.23 5.84L48.23 5.84L48.23 5.84Q49.74 5.84 50.63 6.79L50.63 6.79L50.63 6.79Q51.52 7.75 51.52 9.26L51.52 9.26L51.52 9.94L46.80 9.94L46.80 9.94Q46.87 10.49 47.28 10.79L47.28 10.79L47.28 10.79Q47.69 11.10 48.23 11.10L48.23 11.10L48.23 11.10Q49.19 11.10 49.94 10.55L49.94 10.55L51.04 11.65L51.04 11.65Q50.29 12.67 48.23 12.67L48.23 12.67L48.23 12.67Q46.73 12.67 45.77 11.72L45.77 11.72L45.77 11.72Q44.82 10.76 44.82 9.26ZM49.60 8.57L49.60 8.57Q49.60 8.03 49.19 7.72L49.19 7.72L49.19 7.72Q48.78 7.41 48.23 7.41L48.23 7.41L48.23 7.41Q47.69 7.41 47.28 7.72L47.28 7.72L47.28 7.72Q46.87 8.03 46.87 8.57L46.87 8.57L49.60 8.57ZM60.01 12.67L57.96 12.67L57.96 2.42L62.43 2.42L62.43 2.42Q66.02 2.42 66.02 5.37L66.02 5.37L66.02 5.37Q66.02 8.44 62.44 8.44L62.44 8.44L60.01 8.44L60.01 12.67ZM60.01 4.34L60.01 6.52L62.88 6.52L62.88 6.52Q64.12 6.50 64.16 5.39L64.16 5.39L64.16 5.39Q64.12 4.38 62.90 4.34L62.90 4.34L60.01 4.34ZM69.14 5.83L69.14 6.59L69.14 6.59Q69.87 5.84 70.92 5.84L70.92 5.84L70.92 5.84Q71.26 5.84 71.56 5.89L71.56 5.89L71.26 7.78L71.26 7.78Q70.92 7.48 70.30 7.46L70.30 7.46L70.30 7.46Q69.60 7.51 69.14 8.47L69.14 8.47L69.14 12.67L67.22 12.67L67.22 6.04L69.14 5.83ZM75.91 12.74L75.91 12.74Q74.42 12.74 73.42 11.74L73.42 11.74L73.42 11.74Q72.42 10.74 72.42 9.26L72.42 9.26L72.42 9.26Q72.42 7.77 73.42 6.77L73.42 6.77L73.42 6.77Q74.42 5.77 75.91 5.77L75.91 5.77L75.91 5.77Q77.40 5.77 78.39 6.77L78.39 6.77L78.39 6.77Q79.39 7.77 79.39 9.26L79.39 9.26L79.39 9.26Q79.39 10.75 78.39 11.74L78.39 11.74L78.39 11.74Q77.40 12.74 75.91 12.74L75.91 12.74ZM75.90 11.09L75.90 11.09L75.90 11.09Q76.68 11.09 77.16 10.56L77.16 10.56L77.16 10.56Q77.65 10.04 77.65 9.26L77.65 9.26L77.65 9.26Q77.65 8.48 77.16 7.96L77.16 7.96L77.16 7.96Q76.68 7.43 75.89 7.43L75.89 7.43L75.89 7.43Q75.12 7.43 74.63 7.96L74.63 7.96L74.63 7.96Q74.15 8.48 74.15 9.26L74.15 9.26L74.15 9.26Q74.15 10.04 74.63 10.56L74.63 10.56L74.63 10.56Q75.12 11.09 75.90 11.09ZM82.58 15.55L80.66 15.54L80.66 6.04L82.58 5.83L82.58 6.38L82.58 6.38Q83.34 5.83 84.08 5.83L84.08 5.83L84.08 5.83Q85.65 5.83 86.58 6.86L86.58 6.86L86.58 6.86Q87.50 7.88 87.50 9.25L87.50 9.25L87.50 9.25Q87.50 10.62 86.58 11.64L86.58 11.64L86.58 11.64Q85.65 12.67 84.08 12.67L84.08 12.67L84.08 12.67Q83.06 12.60 82.58 12.11L82.58 12.11L82.58 15.55ZM82.58 8.63L82.58 8.63L82.58 9.74L82.58 9.74Q82.71 10.89 84.01 11.09L84.01 11.09L84.01 11.09Q85.65 10.96 85.86 9.39L85.86 9.39L85.86 9.39Q85.79 7.47 84.01 7.40L84.01 7.40L84.01 7.40Q82.71 7.61 82.58 8.63ZM88.50 9.26L88.50 9.26L88.50 9.26Q88.50 7.75 89.46 6.79L89.46 6.79L89.46 6.79Q90.42 5.84 91.92 5.84L91.92 5.84L91.92 5.84Q93.43 5.84 94.32 6.79L94.32 6.79L94.32 6.79Q95.20 7.75 95.20 9.26L95.20 9.26L95.20 9.94L90.49 9.94L90.49 9.94Q90.56 10.49 90.97 10.79L90.97 10.79L90.97 10.79Q91.38 11.10 91.92 11.10L91.92 11.10L91.92 11.10Q92.88 11.10 93.63 10.55L93.63 10.55L94.73 11.65L94.73 11.65Q93.97 12.67 91.92 12.67L91.92 12.67L91.92 12.67Q90.42 12.67 89.46 11.72L89.46 11.72L89.46 11.72Q88.50 10.76 88.50 9.26ZM93.29 8.57L93.29 8.57Q93.29 8.03 92.88 7.72L92.88 7.72L92.88 7.72Q92.47 7.41 91.92 7.41L91.92 7.41L91.92 7.41Q91.38 7.41 90.97 7.72L90.97 7.72L90.97 7.72Q90.56 8.03 90.56 8.57L90.56 8.57L93.29 8.57ZM98.47 5.83L98.47 6.59L98.47 6.59Q99.20 5.84 100.26 5.84L100.26 5.84L100.26 5.84Q100.59 5.84 100.89 5.89L100.89 5.89L100.59 7.78L100.59 7.78Q100.26 7.48 99.63 7.46L99.63 7.46L99.63 7.46Q98.94 7.51 98.47 8.47L98.47 8.47L98.47 12.67L96.56 12.67L96.56 6.04L98.47 5.83ZM106.37 12.35L106.37 12.35Q105.88 12.67 105.24 12.67L105.24 12.67L105.24 12.67Q104.08 12.67 103.39 12.02L103.39 12.02L103.39 12.02Q102.71 11.38 102.71 10.35L102.71 10.35L102.71 7.39L101.68 7.39L101.68 5.84L102.71 5.84L102.71 3.99L104.63 3.79L104.63 5.84L105.66 5.84L105.66 7.39L104.63 7.39L104.63 10.08L104.63 10.08Q104.63 10.62 104.86 10.85L104.86 10.85L104.86 10.85Q105.09 11.07 105.45 11.07L105.45 11.07L105.45 11.07Q105.56 11.07 105.96 10.98L105.96 10.98L106.37 12.35ZM109.44 12.67L107.53 12.67L107.53 5.83L109.44 5.83L109.44 12.67ZM107.46 4.20L107.46 4.20L107.46 4.20Q107.46 4.61 107.73 4.88L107.73 4.88L107.73 4.88Q108.01 5.15 108.49 5.15L108.49 5.15L108.49 5.15Q108.96 5.15 109.24 4.88L109.24 4.88L109.24 4.88Q109.51 4.61 109.51 4.20L109.51 4.20L109.51 4.20Q109.51 3.79 109.24 3.51L109.24 3.51L109.24 3.51Q108.96 3.23 108.47 3.23L108.47 3.23L108.47 3.23Q108.01 3.23 107.73 3.51L107.73 3.51L107.73 3.51Q107.46 3.79 107.46 4.20ZM110.75 9.26L110.75 9.26L110.75 9.26Q110.75 7.75 111.71 6.79L111.71 6.79L111.71 6.79Q112.66 5.84 114.17 5.84L114.17 5.84L114.17 5.84Q115.67 5.84 116.56 6.79L116.56 6.79L116.56 6.79Q117.45 7.75 117.45 9.26L117.45 9.26L117.45 9.94L112.73 9.94L112.73 9.94Q112.80 10.49 113.21 10.79L113.21 10.79L113.21 10.79Q113.62 11.10 114.17 11.10L114.17 11.10L114.17 11.10Q115.12 11.10 115.88 10.55L115.88 10.55L116.97 11.65L116.97 11.65Q116.22 12.67 114.17 12.67L114.17 12.67L114.17 12.67Q112.66 12.67 111.71 11.72L111.71 11.72L111.71 11.72Q110.75 10.76 110.75 9.26ZM115.53 8.57L115.53 8.57Q115.53 8.03 115.12 7.72L115.12 7.72L115.12 7.72Q114.71 7.41 114.17 7.41L114.17 7.41L114.17 7.41Q113.62 7.41 113.21 7.72L113.21 7.72L113.21 7.72Q112.80 8.03 112.80 8.57L112.80 8.57L115.53 8.57ZM121.32 5.80L121.32 5.80Q122.28 5.80 122.81 6.03L122.81 6.03L122.81 6.03Q123.35 6.26 123.81 6.72L123.81 6.72L122.75 7.92L122.75 7.92Q122.28 7.37 121.58 7.37L121.58 7.37L121.58 7.37Q120.89 7.37 120.66 7.63L120.66 7.63L120.66 7.63Q120.43 7.88 120.66 8.09L120.66 8.09L120.66 8.09Q120.89 8.30 121.58 8.44L121.58 8.44L121.58 8.44Q122.60 8.53 123.25 9.02L123.25 9.02L123.25 9.02Q123.90 9.50 123.90 10.71L123.90 10.71L123.90 10.71Q123.90 11.68 123.14 12.21L123.14 12.21L123.14 12.21Q122.37 12.74 121.35 12.74L121.35 12.74L121.35 12.74Q120.38 12.74 119.73 12.47L119.73 12.47L119.73 12.47Q119.09 12.19 118.62 11.72L118.62 11.72L119.68 10.53L119.68 10.53Q120.15 11.08 121.13 11.17L121.13 11.17L121.13 11.17Q121.91 11.17 122.14 10.91L122.14 10.91L122.14 10.91Q122.37 10.66 122.21 10.40L122.21 10.40L122.21 10.40Q122.05 10.14 121.13 10.06L121.13 10.06L121.13 10.06Q120.29 9.96 119.60 9.54L119.60 9.54L119.60 9.54Q118.90 9.13 118.90 7.97L118.90 7.97L118.90 7.97Q118.90 6.91 119.69 6.35L119.69 6.35L119.69 6.35Q120.48 5.80 121.32 5.80L121.32 5.80Z"></path></g><!----><!----></svg>